<svg width="19" height="19" viewBox="0 0 19 19" fill="none" xmlns="http://www.w3.org/2000/svg">
<path d="M9.5 0C4.25261 0 0 4.25376 0 9.5C0 14.7462 4.25377 19 9.5 19C14.7462 19 19 14.7462 19 9.5C19 4.25376 14.7462 0 9.5 0ZM12.6401 8.71526C12.8571 8.71526 13.044 8.79258 13.2021 8.94722C13.3602 9.10186 13.4387 9.2842 13.4387 9.49539V12.1981C13.4387 12.4082 13.3602 12.5917 13.2021 12.7463C13.044 12.9009 12.8571 12.9783 12.6401 12.9783H10.2617V14.8824C10.2617 15.0994 10.1843 15.2829 10.0297 15.4352C9.87506 15.5864 9.69273 15.6625 9.48154 15.6625C9.25881 15.6625 9.06955 15.5864 8.91491 15.4352C8.76027 15.284 8.68295 15.0994 8.68295 14.8824V12.9598H6.32295C6.11291 12.9598 5.92942 12.8836 5.77478 12.7324C5.62014 12.5813 5.54282 12.3966 5.54282 12.1797C5.54282 11.9627 5.61899 11.7792 5.77017 11.6269C5.92134 11.4745 6.10599 11.3995 6.32295 11.3995H11.8404V10.2755H6.34141C6.12446 10.2755 5.94096 10.2017 5.78863 10.0528C5.6363 9.90391 5.56129 9.71811 5.56129 9.49539V6.80187C5.56129 6.58491 5.63745 6.40142 5.78863 6.24909C5.93981 6.09791 6.12446 6.02174 6.34141 6.02174H8.68179V4.11759C8.68179 3.90756 8.7545 3.72406 8.89991 3.56942C9.04531 3.41478 9.2415 3.33746 9.48962 3.33746C9.69965 3.33746 9.88083 3.41363 10.0332 3.56481C10.1855 3.71599 10.2605 3.90063 10.2605 4.11759V6.02174H12.6574C12.8744 6.02174 13.0613 6.09906 13.2195 6.2537C13.3776 6.40834 13.456 6.59068 13.456 6.80187C13.456 7.01306 13.3776 7.20578 13.2195 7.36388C13.0613 7.52198 12.8744 7.60046 12.6574 7.60046H7.14001V8.71526H12.639H12.6401Z" fill="#97E8FF"/>
</svg>
