<?xml version="1.0" encoding="UTF-8"?>
<svg id="Layer_1" xmlns="http://www.w3.org/2000/svg" version="1.1" viewBox="0 0 198.06 213.53">
  <!-- Generator: Adobe Illustrator 29.8.9, SVG Export Plug-In . SVG Version: 2.1.1 Build 1)  -->
  <defs>
    <style>
      .st0 {
        fill: #fff;
      }
    </style>
  </defs>
  <path class="st0" d="M181.76,44.31c-.02,16.1,0,15.62,0,30.38v88.9l-68.28-60.61c-3.65-.31-22.45,26.8-27.93,29.11-1.65,0-10.02-27.17-14.77-29.22-3.58-.61-42.19,47.86-48.25,53.98l-4.87,5.82-1.34-116.69-.02-1.69h165.45ZM54.33,61.4c-27.37,3.77-14.44,45.75,10.07,33.79,17.29-8.44,9.02-36.42-10.07-33.79Z"/>
  <path class="st0" d="M102.42,169.22l-12.75-29.58c2.86-3.21,23.01-25.54,24.97-27.73,17.14,16.66,35.74,31.86,53.08,48.28,1.48,1.41,6.68,6.17,7.28,7.36.92,1.85-2.01,1.67-2.8,1.67h-69.77Z"/>
  <polygon class="st0" points="21.96 169.22 70.34 112.96 94.47 169.22 92.29 169.22 21.96 169.22"/>
  <path class="st0" d="M54.32,68.15c14.77-2.79,17.99,20.84,2.97,22.29-13.07,1.26-16.65-19.71-2.97-22.29Z"/>
</svg>