<svg width="8" height="13" viewBox="0 0 8 13" fill="none" xmlns="http://www.w3.org/2000/svg">
<path d="M7.87997 5.3246L5.50667 3.3656V2.56804C5.7402 2.48424 5.90856 2.26158 5.90856 1.99934V1.71228C5.90856 1.37867 5.63779 1.1079 5.30418 1.1079H5.25918C5.28478 1.0404 5.3003 0.967473 5.3003 0.891441V0.604381C5.3003 0.270769 5.02953 0 4.69592 0H3.25441C2.92079 0 2.65003 0.270769 2.65003 0.604381V0.891441C2.65003 0.967473 2.66477 1.0404 2.69115 1.1079H2.64615C2.31254 1.1079 2.04177 1.37867 2.04177 1.71228V1.99934C2.04177 2.29649 2.25745 2.54321 2.54063 2.59364V3.3687L0.0664748 5.52166C0.0106142 5.57054 -0.0126602 5.64735 0.00673585 5.7195L1.96574 12.8572C1.98901 12.9418 2.06582 13 2.15271 13H6.1095C6.20028 13 6.27864 12.9372 6.29881 12.8487L7.94747 5.51701C7.96376 5.44563 7.93816 5.37115 7.88153 5.3246H7.87997ZM3.03717 0.890667V0.603604C3.03717 0.484125 3.13415 0.387144 3.25363 0.387144H4.69514C4.81462 0.387144 4.91161 0.484125 4.91161 0.603604V0.890667C4.91161 1.01015 4.81462 1.10712 4.69514 1.10712H3.25363C3.13415 1.10712 3.03717 1.01015 3.03717 0.890667ZM2.42814 1.99857V1.71151C2.42814 1.59203 2.52512 1.49505 2.6446 1.49505H5.3034C5.42288 1.49505 5.51987 1.59203 5.51987 1.71151V1.99857C5.51987 2.11805 5.42288 2.21503 5.3034 2.21503H2.6446C2.52512 2.21503 2.42814 2.11805 2.42814 1.99857ZM5.95278 12.6113H2.29935L0.411725 5.73347L2.86028 3.60223C2.86028 3.60223 2.86338 3.59913 2.86494 3.59758C2.86959 3.59292 2.87424 3.58749 2.8789 3.58284C2.88278 3.57818 2.88666 3.57353 2.89054 3.56887C2.89442 3.56344 2.89752 3.55801 2.90062 3.55258C2.90373 3.54715 2.90683 3.54171 2.90916 3.53628C2.91149 3.53085 2.91381 3.52465 2.91536 3.51922C2.91769 3.51301 2.91924 3.50758 2.9208 3.50137C2.92235 3.49594 2.92312 3.48973 2.9239 3.48353C2.92467 3.47654 2.92545 3.47034 2.92623 3.46336C2.92623 3.46103 2.92623 3.4587 2.92623 3.45715V2.60372H5.11798V3.45715C5.11798 3.45715 5.11798 3.46336 5.11875 3.46568C5.11875 3.47267 5.11953 3.47887 5.12108 3.48585C5.12186 3.49206 5.12341 3.49827 5.12419 3.5037C5.12574 3.50991 5.12729 3.51611 5.12962 3.52154C5.13194 3.52775 5.13427 3.53318 5.1366 3.53861C5.13893 3.54404 5.14203 3.54947 5.14591 3.5549C5.14901 3.56033 5.15212 3.56577 5.15599 3.57042C5.15987 3.57508 5.16375 3.57973 5.16763 3.58516C5.17229 3.58982 5.17694 3.59525 5.1816 3.59913C5.18392 3.60145 5.18548 3.60378 5.1878 3.60533L7.54015 5.54649L5.95201 12.6105L5.95278 12.6113Z" fill="#97E8FF"/>
<path d="M1.17356 7.67618L2.41491 12.4011C2.41956 12.4181 2.43508 12.4298 2.45215 12.4298H5.77275C5.79059 12.4298 5.80689 12.4173 5.81077 12.3995L7.25538 5.95226C7.25849 5.93907 7.25383 5.9251 7.24375 5.91579C7.23366 5.90648 7.21969 5.9026 7.2065 5.90648L1.19994 7.62807C1.17977 7.6335 1.16736 7.65445 1.17279 7.6754L1.17356 7.67618Z" fill="#97E8FF"/>
</svg>
