<svg width="24" height="9" viewBox="0 0 24 9" fill="none" xmlns="http://www.w3.org/2000/svg">
<path d="M22.4227 2.33607H8.6753C8.65026 2.33607 8.62522 2.33812 8.60019 2.34017C7.81987 0.946729 6.3114 0 4.58176 0C2.05511 0 0 2.01845 0 4.5C0 6.98155 2.05511 9 4.58176 9C6.78292 9 8.62731 7.46721 9.06337 5.43032H17.6156V7.94672C17.6156 8.38115 17.9744 8.73565 18.4188 8.73565H18.9384C19.3807 8.73565 19.7416 8.38319 19.7416 7.94672V5.43032H20.4468V7.96312C20.4468 8.38935 20.7994 8.73565 21.2334 8.73565H21.7863C22.2203 8.73565 22.5729 8.38935 22.5729 7.96312V5.42213C23.3741 5.34836 24 4.68852 24 3.8832C24 3.02869 23.2948 2.33607 22.4248 2.33607H22.4227ZM4.58176 7.00614C3.17343 7.00614 2.03008 5.88115 2.03008 4.5C2.03008 3.11885 3.17552 1.99386 4.58176 1.99386C5.988 1.99386 7.13344 3.11885 7.13344 4.5C7.13344 5.88115 5.988 7.00614 4.58176 7.00614Z" fill="#97E8FF"/>
</svg>
