<?xml version="1.0" encoding="UTF-8"?>
<svg id="Layer_1" xmlns="http://www.w3.org/2000/svg" version="1.1" viewBox="0 0 128.38 27.78">
  <!-- Generator: Adobe Illustrator 29.8.4, SVG Export Plug-In . SVG Version: 2.1.1 Build 6)  -->
  <defs>
    <style>
      .st0 {
        stroke: #97e8ff;
        stroke-miterlimit: 10;
        stroke-width: .3px;
      }

      .st0, .st1 {
        fill: #97e8ff;
      }

      .st2 {
        fill: none;
      }
    </style>
  </defs>
  <path class="st1" d="M48.56,6.47c0-1.2-.46-2.09-1.38-2.63-.85-.5-2.15-.75-3.98-.75-1.73,0-2.95.24-3.75.74-.86.53-1.29,1.4-1.29,2.58v3.43h.57v.12h-.57v1.6c.03,1.08.27,1.84.72,2.32.45.47,1.19.77,2.28.9.36.03.66.05.9.07l.3.02c.27.02.56.06.87.11.3.05.51.08.64.12.11.03.23.08.35.14.14.07.17.1.16.1,0,.01.05.07.1.23.04.11.06.21.07.32,0,.13,0,.31,0,.53v3.8c0,.24,0,.64-.96.64-.7,0-.97-.15-1.07-.24-.19-.17-.23-.56-.23-.86v-2.57h1.05v-2.18h-4.13v1.25h-1.05v4.62c0,1.09.27,1.92.79,2.44.4.42.99.76,1.75,1.01.75.25,1.52.37,2.37.37s1.62-.05,2.36-.16c.77-.11,1.32-.26,1.69-.45.44-.24.8-.66,1.07-1.26.27-.57.41-1.18.41-1.81v-5.33c-.03-1.53-.32-2.59-.86-3.22-.57-.66-1.54-1.03-2.97-1.13-1.28-.1-1.82-.24-2.04-.35-.05-.02-.1-.05-.15-.09h.37l-.07-.53c-.02-.14-.03-.23-.03-.31v-1.14h-.57v-1.55c0-.2.06-.34.21-.45.19-.14.48-.21.87-.21.62,0,.88.13.97.2.05.04.21.16.21.6v2.33h1.05v.72h3.6v-1.65h-.65v-2.45h.01ZM47.63,9.64h-1.09v-.72h-.19v-.94h-.85v-.46c0-.6-.19-1.04-.57-1.33-.34-.27-.85-.39-1.54-.39-.6,0-1.06.13-1.42.39-.38.29-.59.7-.59,1.2v2.48h.57v.12h-.61l.08.53c.09.62.42,1.09.95,1.33.44.2,1.19.34,2.36.43,1.16.09,1.95.36,2.34.81.4.46.61,1.34.64,2.63v5.32c0,.5-.1.96-.32,1.41-.19.41-.42.7-.67.83-.18.09-.57.23-1.39.35-.7.1-1.44.15-2.22.15s-1.43-.1-2.08-.32c-.62-.2-1.07-.45-1.37-.77-.35-.35-.53-.95-.53-1.79v-3.69h1.05v-1.25h2.27v.32h-1.05v3.5c0,.73.18,1.24.55,1.56.35.31.9.47,1.68.47,1.71,0,1.89-1.1,1.89-1.57v-3.8c0-.27,0-.47-.02-.61,0-.18-.05-.37-.12-.56-.07-.19-.14-.34-.21-.45-.09-.14-.24-.25-.49-.39-.2-.1-.37-.17-.54-.21-.15-.04-.39-.08-.73-.14-.33-.05-.64-.09-.94-.12l-.29-.02c-.25-.02-.55-.05-.89-.07-.83-.1-1.4-.3-1.69-.61-.28-.3-.44-.88-.47-1.7v-.66h.57v-1.98h-.57v-2.5c0-.85.28-1.43.85-1.79.63-.4,1.73-.6,3.26-.6,1.63,0,2.81.21,3.5.62.62.37.92.97.92,1.83v3.17h-.03Z"/>
  <path class="st1" d="M72.59,6.47c0-1.2-.46-2.09-1.38-2.63-.85-.5-2.15-.75-3.98-.75-1.73,0-2.95.24-3.75.74-.65.4-1.05,1-1.21,1.78h-1.62c.21-.59.39-1.09.54-1.51l.23-.63h-4.08l-.1.34c-.03.12-.08.28-.15.48l-.73,2.28h.6l-.83,2.37-1.01-3.31h-1.37c-.07-.24-.15-.54-.25-.88-.15-.54-.24-.86-.27-.95l-.11-.32h-3.62v.47l-.41.16c.11.29.26.69.44,1.19l.15.43c.1.27.16.45.19.54l.11.32h1.27c.18.52.41,1.19.71,2.01l-.35.12.19.46c.07.16.15.37.26.63l-.97.03.26.64c.03.07.07.18.13.35l1.61,4.88c0,.52,0,2.25,0,5.25v1.22h.43l.05.18s0,.05.02.08h-.47v2.22h3.72l.49-.48v-.82l.65-.04v-2.1h-.8v-5.46l2.66-7.66v-.03h.31l.14-.17c.15-.18.38-.45.68-.79.31-.35.53-.59.65-.74l.64-.75c-.05.25-.08.51-.08.79v3.43h.57v.12h-.57v1.6c.03,1.08.27,1.84.72,2.32.45.47,1.19.77,2.28.9.36.03.66.05.9.07l.3.02c.27.02.56.06.86.11.3.05.51.08.65.12.11.03.23.08.35.14.13.07.16.11.16.1.01.02.05.07.1.23.04.11.06.21.07.32.01.13.01.31.01.53v3.8c0,.24,0,.64-.96.64-.7,0-.97-.15-1.07-.24-.19-.17-.23-.56-.23-.86v-2.57h1.05v-2.18h-4.13v1.25h-1.05v4.62c0,1.1.27,1.92.79,2.44.4.42.99.76,1.75,1.01.75.25,1.52.37,2.37.37s1.62-.05,2.36-.16c.77-.11,1.32-.26,1.69-.45.44-.24.8-.66,1.07-1.26.27-.57.41-1.18.41-1.81v-5.33c-.03-1.53-.31-2.59-.86-3.22-.57-.66-1.54-1.03-2.97-1.13-1.28-.1-1.82-.24-2.04-.35-.05-.02-.1-.05-.15-.09h.37l-.07-.53c-.02-.14-.03-.23-.03-.31v-1.14h-.57v-1.55c0-.2.06-.34.21-.45.19-.14.48-.21.87-.21.62,0,.88.13.97.2.05.04.21.16.21.6v2.33h1.05v.72h3.6v-1.65h-.65v-2.45h.03ZM59.72,7.14h-.76v.59s0,.05,0,.11l-2.67,7.69-.03,6.62h.8v.31l-.65.04v1.23h-2.35v-.41l.71-.07-.15-.6s0-.02,0-.04l.2-.03.02-.38c0-.11.02-.26.04-.45l.06-.52h-.9v-.29c0-3.07,0-4.93,0-5.3v-.08l-1.52-4.64-.07-.19h.98l-.24-.63c-.13-.34-.24-.62-.33-.86l.29-.14-.14-.39c-.43-1.22-.75-2.13-.97-2.76l-.11-.31h-1.27c-.03-.07-.05-.15-.09-.25l-.15-.43c-.08-.21-.15-.41-.21-.58h2.25c.04.15.09.34.16.58.14.54.26.95.35,1.24l.1.33h1.37l1.19,3.87.19.33h.67l1.79-5.12h-.64l.34-1.07c.02-.06.04-.12.05-.17h2.05c-.16.44-.34.94-.54,1.51l-.22.62h.91c-.21.24-.39.44-.53.6l.03.04ZM71.66,9.64h-1.09v-.72h-.19v-.94h-.86v-.46c0-.6-.19-1.04-.57-1.33-.34-.27-.85-.39-1.54-.39-.6,0-1.06.13-1.42.39-.38.29-.59.7-.59,1.2v2.48h.57v.12h-.61l.08.53c.09.62.42,1.08.95,1.33.44.2,1.19.34,2.36.43,1.16.09,1.94.36,2.34.81.4.46.61,1.34.64,2.63v5.32c0,.5-.1.96-.32,1.41-.19.41-.42.7-.67.83-.18.09-.57.23-1.39.35-.7.1-1.44.15-2.22.15s-1.43-.1-2.08-.32c-.62-.2-1.07-.45-1.37-.77-.35-.35-.53-.95-.53-1.79v-3.69h1.05v-1.25h2.27v.32h-1.05v3.5c0,.73.18,1.24.55,1.56.35.31.91.47,1.68.47,1.71,0,1.89-1.1,1.89-1.57v-3.8c0-.27,0-.48-.02-.61,0-.18-.05-.37-.12-.56-.07-.19-.14-.34-.21-.45-.09-.13-.24-.25-.49-.39-.2-.1-.37-.17-.54-.21-.15-.04-.39-.08-.74-.14-.33-.05-.64-.09-.94-.12l-.29-.02c-.25-.02-.55-.05-.9-.07-.83-.1-1.4-.3-1.69-.61-.28-.3-.44-.88-.47-1.7v-.66h.57v-1.98h-.57v-2.5c0-.85.28-1.43.85-1.79.64-.4,1.73-.6,3.26-.6,1.63,0,2.81.21,3.5.62.62.37.92.97.92,1.83v3.17h0Z"/>
  <path class="st1" d="M73.41,5.13l-.13.34-.06,1.35h.46v.48h3.1v1.68h1.28v2.24h-1.28v7.46l.06.35h.02l-.09.12v2.9h1.34v2.64h4.08v-3.61h-1.29v-1.1l.44-.72c.09-.15.15-.24.17-.28l.38-.67-.77-.03h-.21v-6.15h1.28v-4.1h-1.26v-.72h3.31l-.04-1.56.22-.4v-1.82h-11.02l.02,1.62v-.02ZM74.18,5.73l.17-.43v-.85h9.14v.65l-.23.41.02.85h-3.29v2.58h1.26v2.24h-1.28v7.93l.33.03-.34.56v2.29h1.29v1.75h-2.22v-2.64h-1.34v-1.64c.1-.13.2-.25.3-.38l.4-.52-.69-.23v-6.2h1.28v-4.1h-1.28v-1.68h-3.54l.02-.63h0Z"/>
  <path class="st1" d="M85.85,4.75h-.2v1.91l.22.24v2.94h-.39l-.29.56h-.59v3.44h1.25v1.38h-.65v.71h-.62v8.42l.18.36h10.45v-1.22l-.17-.14s-.12-.09-.28-.19c-.02-.01-.04-.03-.06-.04v-2.51h-5.98v-3.74h.8v-.71h5.36v-3.29h-1.18v-1.31h-4.98v-.23h.69v-.56h.62v-3.52h5.76v-3.7h-9.93l.03,1.22-.04-.02ZM86.35,10.76l.44-.02v-4.2l-.22-.24v-.62h.23l-.03-1.22h8.05v1.84h-5.76v3.52h-.62v.56h-.69v1.59l.14.14s.04.04.07.08c.05.06.1.11.14.15l.14.14h4.5v1.31h1.18v1.43h-5.36v.71h-.8v5.6h5.98v2.03l.16.14s.05.04.09.07h-8.5v-6.92h.62v-.71h.65v-3.24h-1.25v-1.58h.23l.29-.55h.33-.01Z"/>
  <path class="st1" d="M110.28,18.3V3.45h-5.54l-1.05,8.02-1.28-8.02h-5.5v2.17h.71v.97h-.71v12.67h.42v.12h-.42v4.83h.46v.46h3.5v-4.2h.31v-2.18h-.31v-2.66l1.5,9.05h2.8l1.21-7.69v2.28h.31v.12h-.31v5.29h3.9v-4.2h.3v-2.18h-.3ZM109.65,19.54h-.3v4.2h-2.04v-3.43h.31v-1.98h-.31v-3.86l.16-6.17-.93-.06-.49,4.84-1.68,10.66h-1.22l-2.51-15.44-.92.09.22,6.35v4.47h.31v.32h-.31v4.2h-2.1v-3.43h.42v-1.98h-.42v-10.02h1.48v-1h1.31v-1.18h-2.07v-1.44h-.71v-.31h3.78l2.17,13.54,1.78-13.54h3.8v14.85h.3v.32h-.03Z"/>
  <path class="st0" d="M16.8,6.38h1.53v7.72h3.06v-7.72h1.54v-2.38h-6.13s0,2.38,0,2.38ZM17.27,4.45h5.2v1.48h-1.54v7.72h-2.12v-7.72h-1.53v-1.48h-.01Z"/>
  <path class="st0" d="M35.12,10.04h1.62v-2.29h-1.62v-1.38h1.73v-2.38h-4.79v10.1h4.96v-2.38h-1.9s0-1.67,0-1.67ZM36.55,12.16v1.48h-4.03V4.45h3.85v1.48h-1.73v2.28h1.62v1.38h-1.62v2.57h1.91Z"/>
  <polygon class="st2" points="28.04 8.05 26.49 8.05 26.49 4.6 24.67 4.6 24.67 13.49 26.49 13.49 26.49 9.44 28.04 9.44 28.04 13.49 29.86 13.49 29.86 4.6 28.04 4.6 28.04 8.05"/>
  <polygon class="st2" points="27.26 10.19 27.26 10.32 27.26 10.32 27.26 10.19"/>
  <path class="st1" d="M27.39,3.84v3.92h-.22v-3.92h-3.28v10.4h3.28v-3.92h.08v-.13.13h.13v3.92h3.24V3.84h-3.24ZM29.86,13.49h-1.82v-4.05h-1.55v4.05h-1.82V4.6h1.82v3.45h1.55v-3.45h1.82v8.89Z"/>
</svg>